<?xml version="1.0" standalone="no"?>
<!DOCTYPE svg PUBLIC "-//W3C//DTD SVG 20010904//EN"
 "http://www.w3.org/TR/2001/REC-SVG-20010904/DTD/svg10.dtd">
<svg version="1.0" xmlns="http://www.w3.org/2000/svg"
 width="200.000000pt" height="200.000000pt" viewBox="0 0 200.000000 200.000000"
 preserveAspectRatio="xMidYMid meet">

<g transform="translate(0.000000,200.000000) scale(0.100000,-0.100000)"
fill="#000000" stroke="none">
<path d="M0 1000 l0 -1000 1000 0 1000 0 0 1000 0 1000 -1000 0 -1000 0 0
-1000z m1037 938 c6 -7 95 -194 198 -415 l188 -402 86 66 c80 62 83 64 46 23
-74 -81 -197 -204 -650 -647 -492 -480 -522 -508 -538 -508 -14 0 -167 223
-167 243 0 23 807 1652 819 1652 5 0 13 -6 18 -12z m578 -958 c-36 -49 -65
-97 -65 -106 0 -18 75 -189 179 -410 39 -82 71 -158 71 -167 0 -21 -105 -233
-120 -242 -16 -10 -33 4 -288 229 -191 169 -238 206 -255 200 -11 -4 -50 -28
-86 -54 -71 -51 -91 -63 -91 -58 0 6 709 698 715 698 3 0 -24 -40 -60 -90z"/>
</g>
</svg>
